<?xml version="1.0" encoding="UTF-8"?>
<svg id="Layer_1" xmlns="http://www.w3.org/2000/svg" version="1.1" viewBox="0 0 240.8 103.47">
  <!-- Generator: Adobe Illustrator 30.1.0, SVG Export Plug-In . SVG Version: 2.1.1 Build 136)  -->
  <defs>
    <style>
      .st0 {
        fill: #fff;
      }
    </style>
  </defs>
  <g>
    <path class="st0" d="M23.69,96.97c-4.18,0-7.85-.52-11-1.55-3.15-1.03-5.61-2.45-7.39-4.25-1.77-1.8-2.66-3.91-2.66-6.32s.77-4.3,2.32-5.84,3.47-2.32,5.76-2.32c.69,0,1.36.09,2.02.26.66.17,1.45.49,2.36.95-1.55.63-2.74,1.59-3.57,2.88-.83,1.29-1.25,2.82-1.25,4.6,0,2.41,1.23,4.3,3.7,5.67,2.46,1.38,5.79,2.06,9.97,2.06,3.09,0,5.83-.43,8.21-1.29,2.38-.86,4.24-1.93,5.59-3.22,1.35-1.29,2.02-2.59,2.02-3.91,0-1.09-.43-2.11-1.29-3.05-.86-.95-2.11-1.78-3.74-2.49-1.63-.72-3.62-1.28-5.97-1.68-3.09-.52-5.79-1.09-8.08-1.72-2.29-.63-4.18-1.32-5.67-2.06-1.49-.74-2.59-1.62-3.31-2.62-.72-1-1.07-2.13-1.07-3.39,0-1.66.73-3.08,2.19-4.25,1.46-1.17,4.08-2.31,7.86-3.39l.17-.34c-2.18-1.55-3.81-3.31-4.9-5.29-1.09-1.98-1.63-4.2-1.63-6.66,0-3.55.93-6.82,2.79-9.8,1.86-2.98,4.35-5.36,7.48-7.13,3.12-1.78,6.52-2.66,10.18-2.66,4.24,0,7.79,1.55,10.66,4.64,1.32-1.49,2.63-2.62,3.95-3.39,1.32-.77,2.61-1.16,3.87-1.16,1.83,0,3.44.56,4.81,1.68s2.06,2.42,2.06,3.91c0,1.15-.39,2.11-1.16,2.88s-1.73,1.16-2.88,1.16c-.86,0-1.53-.19-2.02-.56-.49-.37-.9-.79-1.25-1.25-.34-.46-.72-.87-1.12-1.25-.4-.37-1-.56-1.8-.56-.4,0-.77.07-1.12.21-.34.14-.97.53-1.89,1.16.52,1.32.77,2.98.77,4.98,0,6.25-1.75,11.26-5.24,15.04-3.5,3.78-8.31,5.9-14.44,6.36-2.69.23-4.64.57-5.84,1.03-1.2.46-1.8,1.15-1.8,2.06,0,1.2.63,2.12,1.89,2.75,1.26.63,2.88,1.13,4.86,1.5,1.98.37,4.08.76,6.32,1.16,2.23.4,4.34.97,6.32,1.72,1.98.75,3.59,1.8,4.86,3.18,1.26,1.38,1.89,3.21,1.89,5.5,0,3.27-.93,6.1-2.79,8.51-1.86,2.41-4.5,4.27-7.91,5.59-3.41,1.32-7.43,1.98-12.08,1.98ZM28.42,58.21c1.38,0,2.72-.54,4.04-1.63,1.32-1.09,2.51-2.54,3.57-4.34,1.06-1.8,1.9-3.85,2.54-6.14.63-2.29.95-4.64.95-7.05s-.52-4.11-1.55-5.46c-1.03-1.35-2.38-2.02-4.04-2.02-1.32,0-2.66.57-4.04,1.72-1.38,1.15-2.62,2.66-3.74,4.55s-2.02,3.98-2.71,6.27c-.69,2.29-1.03,4.55-1.03,6.79s.56,3.87,1.68,5.24,2.56,2.06,4.34,2.06Z"/>
    <path class="st0" d="M72.06,69.3c.92,0,2.12-.63,3.61-1.89,1.49-1.26,3.06-2.98,4.73-5.16,1.66-2.18,3.28-4.64,4.86-7.39,1.58-2.75,2.91-5.61,4-8.59l6.36-17.19h7.99l-6.36,19.68c-1.2,3.84-2.18,6.95-2.92,9.32-.75,2.38-1.28,4.24-1.59,5.59-.32,1.35-.47,2.39-.47,3.14,0,1.49.52,2.23,1.55,2.23.8,0,1.75-.47,2.84-1.42,1.09-.95,2.19-2.18,3.31-3.7,1.12-1.52,2.05-3.14,2.79-4.86l2.58,1.29c-.97,2.52-2.34,4.94-4.08,7.26-1.75,2.32-3.64,4.21-5.67,5.67-2.03,1.46-4.05,2.19-6.06,2.19-1.78,0-2.98-.64-3.61-1.93-.63-1.29-.95-3.08-.95-5.37,0-.97.04-2.02.13-3.14.09-1.12.24-2.22.47-3.31l-.26-.26c-2.01,3.61-3.97,6.43-5.89,8.47-1.92,2.03-3.78,3.47-5.59,4.3-1.8.83-3.54,1.25-5.2,1.25-2.64,0-4.5-.75-5.59-2.23-1.09-1.49-1.63-3.32-1.63-5.5,0-2.41.46-5.06,1.38-7.95.92-2.89,1.89-5.63,2.92-8.21,1.38-3.44,2.48-6.19,3.31-8.25.83-2.06,1.42-3.68,1.76-4.86.34-1.17.52-2.05.52-2.62,0-.23-.04-.44-.13-.64-.09-.2-.3-.3-.64-.3-.75,0-1.82.66-3.22,1.98-1.4,1.32-3.31,3.44-5.72,6.36l-2.23-1.2c1.15-2.23,2.66-4.41,4.55-6.53,1.89-2.12,3.91-3.87,6.06-5.24,2.15-1.38,4.14-2.06,5.97-2.06,1.38,0,2.43.43,3.18,1.29.74.86,1.12,2.09,1.12,3.7,0,2.01-.56,4.6-1.68,7.78-1.12,3.18-2.56,6.98-4.34,11.39-1.09,2.81-2.02,5.33-2.79,7.56-.77,2.23-1.16,4.27-1.16,6.1,0,1.2.17,2.05.52,2.54.34.49.77.73,1.29.73Z"/>
    <path class="st0" d="M115.76,75.49c-1.66,0-2.91-.44-3.74-1.33-.83-.89-1.25-2.31-1.25-4.25,0-1.66.27-3.45.82-5.37.54-1.92,1.33-4.34,2.36-7.26l3.87-11c.8-2.23,1.38-4.05,1.72-5.46.34-1.4.52-2.48.52-3.22,0-.8-.13-1.33-.39-1.59-.26-.26-.53-.39-.82-.39-.8,0-1.73.49-2.79,1.46-1.06.97-2.02,2.03-2.88,3.18-.86,1.15-1.46,2.03-1.8,2.66l-2.49-1.55c.69-1.32,1.65-2.72,2.88-4.21,1.23-1.49,2.63-2.92,4.21-4.3,1.58-1.38,3.18-2.49,4.81-3.35,1.63-.86,3.19-1.29,4.68-1.29s2.51.42,3.22,1.25c.72.83,1.07,2.34,1.07,4.51,0,1.09-.23,2.45-.69,4.08-.46,1.63-1.09,3.55-1.89,5.76-.8,2.21-1.75,4.77-2.84,7.69l-3.18,8.68c-.12.4-.33,1.03-.64,1.89-.32.86-.59,1.73-.82,2.62-.23.89-.34,1.62-.34,2.19,0,.52.14.97.43,1.38.29.4.74.6,1.38.6.86,0,1.75-.34,2.66-1.03.92-.69,1.82-1.55,2.71-2.58.89-1.03,1.66-2.03,2.32-3.01.66-.97,1.16-1.75,1.5-2.32l2.58,1.46c-.69,1.38-1.62,2.88-2.79,4.51-1.18,1.63-2.51,3.18-4,4.64-1.49,1.46-3.12,2.65-4.9,3.57-1.78.92-3.61,1.38-5.5,1.38Z"/>
    <path class="st0" d="M147.11,75.49c-1.95,0-3.71-.56-5.29-1.68-1.58-1.12-2.82-2.69-3.74-4.73-.92-2.03-1.38-4.37-1.38-7,0-2.98.54-6.06,1.63-9.24,1.09-3.18,2.56-6.23,4.43-9.15s3.95-5.54,6.27-7.86c2.32-2.32,4.74-4.17,7.26-5.54,2.52-1.38,4.96-2.06,7.31-2.06,2,0,3.49.37,4.47,1.12.97.75,1.95,1.92,2.92,3.52l4.99-17.7c.46-1.55.8-2.84,1.03-3.87.23-1.03.34-1.78.34-2.23,0-.86-.57-1.46-1.72-1.8-1.15-.34-3.21-.52-6.19-.52l.95-3.44h16.59l-9.54,34.81c-1.6,5.96-2.87,10.79-3.78,14.48-.92,3.7-1.55,6.57-1.89,8.64-.34,2.06-.52,3.72-.52,4.98s.21,2.16.64,2.71c.43.54.93.82,1.5.82,1.26,0,2.63-1.06,4.12-3.18,1.49-2.12,2.78-4.9,3.87-8.34l3.27.77c-1.95,5.62-4.08,9.77-6.4,12.46-2.32,2.69-4.94,4.04-7.86,4.04-2.06,0-3.65-.66-4.77-1.98-1.12-1.32-1.68-3.21-1.68-5.67,0-.63.06-1.29.17-1.98.11-.69.26-1.35.43-1.98l-.69-.17c-1.43,2.52-3.09,4.66-4.99,6.4-1.89,1.75-3.85,3.08-5.89,4-2.03.92-4,1.38-5.89,1.38ZM150.72,69.9c1.55,0,3.15-.73,4.81-2.19,1.66-1.46,3.26-3.37,4.81-5.72,1.55-2.35,2.94-4.93,4.17-7.73,1.23-2.81,2.2-5.6,2.92-8.38.72-2.78,1.07-5.26,1.07-7.43,0-1.78-.34-3.17-1.03-4.17-.69-1-1.78-1.5-3.27-1.5-1.78,0-3.58.66-5.42,1.98-1.83,1.32-3.57,3.07-5.2,5.24-1.63,2.18-3.09,4.6-4.38,7.26-1.29,2.66-2.31,5.37-3.05,8.12-.75,2.75-1.12,5.33-1.12,7.73,0,2.06.52,3.71,1.55,4.94,1.03,1.23,2.41,1.85,4.13,1.85Z"/>
    <path class="st0" d="M200.51,75.49c-3.9,0-6.92-1.23-9.07-3.7-2.15-2.46-3.22-5.9-3.22-10.31,0-3.15.53-6.32,1.59-9.5,1.06-3.18,2.51-6.19,4.34-9.02,1.83-2.84,3.92-5.36,6.27-7.56,2.35-2.21,4.83-3.95,7.43-5.24,2.61-1.29,5.23-1.93,7.86-1.93s5,.7,6.75,2.11c1.75,1.4,2.62,3.19,2.62,5.37,0,2.01-.73,4.05-2.19,6.14-1.46,2.09-3.5,4.11-6.1,6.06-2.61,1.95-5.6,3.68-8.98,5.2-3.38,1.52-6.99,2.71-10.83,3.57-.12.8-.2,1.59-.26,2.36-.06.77-.09,1.56-.09,2.36,0,3.04.57,5.36,1.72,6.96,1.15,1.6,2.78,2.41,4.9,2.41s4.31-.83,6.57-2.49c2.26-1.66,4.37-3.95,6.32-6.88l2.75,1.8c-2.46,4.01-5.26,7.06-8.38,9.15-3.12,2.09-6.46,3.14-10.01,3.14ZM197.85,52.8c3.67-1.03,6.95-2.43,9.84-4.21,2.89-1.78,5.17-3.77,6.83-5.97,1.66-2.21,2.49-4.45,2.49-6.75,0-2.41-1-3.61-3.01-3.61-1.49,0-3.04.57-4.64,1.72-1.6,1.15-3.14,2.69-4.6,4.64-1.46,1.95-2.79,4.14-4,6.57-1.2,2.44-2.18,4.97-2.92,7.61Z"/>
    <path class="st0" d="M232.07,75.49c-1.6,0-2.99-.54-4.17-1.63-1.17-1.09-1.76-2.49-1.76-4.21s.57-3.18,1.72-4.38,2.55-1.8,4.21-1.8c1.78,0,3.24.6,4.38,1.8,1.15,1.2,1.72,2.64,1.72,4.3s-.6,3.07-1.8,4.21c-1.2,1.15-2.64,1.72-4.3,1.72Z"/>
  </g>
  <g>
    <path class="st0" d="M57.88,100.15v-.88c.72-.08,1.27-.24,1.63-.49.36-.25.67-.7.93-1.35l5.93-14.88h1.45l5.35,13.09c.32.79.6,1.41.84,1.88.24.47.48.82.72,1.05s.52.4.83.49c.31.09.7.15,1.17.18v.91h-8.18v-.91c.74-.03,1.27-.11,1.59-.24.32-.13.48-.37.48-.74,0-.24-.05-.52-.15-.83-.1-.31-.24-.71-.42-1.19l-.66-1.72h-6.3c-.41.95-.71,1.72-.9,2.31-.19.59-.28,1.04-.28,1.36,0,.44.16.72.49.86.32.14.81.2,1.46.2v.88h-5.98ZM63.59,93.27h5.32l-2.56-6.82h-.09l-2.67,6.82Z"/>
    <path class="st0" d="M88.56,100.38l-6.36-14.95h-.09v10.42c0,1,.06,1.73.18,2.21.12.48.36.79.72.94.36.15.91.24,1.65.27v.88h-6.77v-.88c.74-.03,1.29-.12,1.65-.27.36-.15.61-.45.74-.91.13-.45.19-1.15.19-2.08v-9.15c0-.86-.06-1.52-.17-1.98-.11-.46-.34-.78-.67-.97-.33-.19-.84-.29-1.52-.31v-.88h6.41l5.41,13.27h.09l5.44-13.27h6.14v.88c-.66.02-1.16.12-1.49.31-.33.19-.55.52-.66,1.01-.11.48-.16,1.19-.16,2.11v8.83c0,1,.06,1.73.17,2.21.11.48.35.79.72.94.37.15.92.24,1.64.27v.88h-8.13v-.88c.74-.03,1.29-.12,1.65-.27.36-.15.6-.45.72-.91.12-.45.18-1.15.18-2.08v-10.58h-.14l-6.27,14.95h-1.29Z"/>
    <path class="st0" d="M103.13,100.15v-.88c.72-.08,1.27-.24,1.63-.49.36-.25.67-.7.93-1.35l5.93-14.88h1.45l5.35,13.09c.32.79.6,1.41.84,1.88.24.47.48.82.72,1.05s.52.4.83.49c.31.09.7.15,1.17.18v.91h-8.18v-.91c.74-.03,1.27-.11,1.59-.24.32-.13.48-.37.48-.74,0-.24-.05-.52-.15-.83-.1-.31-.24-.71-.42-1.19l-.66-1.72h-6.3c-.41.95-.71,1.72-.9,2.31-.19.59-.28,1.04-.28,1.36,0,.44.16.72.49.86.32.14.81.2,1.46.2v.88h-5.98ZM108.84,93.27h5.32l-2.56-6.82h-.09l-2.67,6.82Z"/>
    <path class="st0" d="M123.18,100.15v-.88c.69-.03,1.22-.11,1.56-.24.35-.13.58-.37.69-.74s.17-.9.17-1.61v-10.51c0-.71-.05-1.24-.16-1.6-.11-.35-.31-.6-.62-.74-.31-.14-.77-.22-1.39-.25v-.88h7.52v.88c-.68.02-1.18.09-1.51.24-.32.14-.54.4-.66.78-.11.38-.17.95-.17,1.72v9.58c0,.85.12,1.49.37,1.93.25.44.67.74,1.26.9.59.16,1.4.24,2.45.24,1.16,0,2.09-.1,2.77-.31.69-.2,1.22-.57,1.59-1.11.37-.54.67-1.31.9-2.32h.88l-.36,4.92h-15.29Z"/>
    <path class="st0" d="M140.33,100.15v-.88c.69-.03,1.22-.11,1.56-.24.35-.13.58-.37.69-.74.11-.36.17-.9.17-1.61v-10.51c0-.71-.05-1.24-.16-1.6-.11-.35-.31-.6-.62-.74-.31-.14-.77-.22-1.39-.25v-.88h13.61l.27,4.64h-.91c-.12-.86-.33-1.54-.62-2.04-.3-.5-.73-.86-1.31-1.08-.58-.22-1.38-.33-2.39-.33h-3.06c-.27,0-.41.13-.41.38v6.66c1.15,0,2.04-.08,2.67-.23.63-.15,1.09-.44,1.38-.86.29-.42.46-1.03.52-1.83h.84v6.95h-.84c-.08-.62-.2-1.12-.37-1.51-.17-.39-.43-.68-.76-.88-.33-.2-.77-.35-1.32-.43-.55-.08-1.26-.12-2.12-.12v4.49c0,.77.08,1.35.23,1.73.15.38.46.64.93.77.47.13,1.17.21,2.11.24v.88h-8.7Z"/>
    <path class="st0" d="M155.06,100.15v-.88c.69-.03,1.21-.12,1.55-.27.34-.15.57-.45.68-.91.11-.45.17-1.15.17-2.08v-9.15c0-.86-.05-1.52-.15-1.97-.1-.45-.31-.77-.62-.96-.32-.19-.79-.3-1.4-.33v-.88h7.38v.88c-.62.03-1.09.14-1.41.33-.32.19-.52.51-.62.97-.1.46-.15,1.14-.15,2.03v9.02c0,.97.06,1.68.17,2.14.11.46.34.77.68.92.34.15.86.24,1.55.27v.88h-7.84Z"/>
    <path class="st0" d="M165.22,98.77c0-.47.16-.86.48-1.19s.7-.49,1.16-.49.86.16,1.18.49.48.72.48,1.19c0,.44-.16.82-.48,1.13s-.71.48-1.18.48-.84-.16-1.16-.48-.48-.69-.48-1.13Z"/>
    <path class="st0" d="M170.73,100.15v-.88c.69-.03,1.22-.11,1.57-.24.35-.13.6-.37.72-.74.13-.36.19-.9.19-1.61v-10.51c0-.71-.05-1.24-.15-1.6s-.3-.6-.6-.74c-.3-.14-.76-.22-1.36-.25v-.88h8.4c1.42,0,2.73.22,3.93.67,1.2.45,2.24,1.07,3.13,1.88.88.81,1.57,1.76,2.05,2.87.48,1.1.72,2.3.72,3.6s-.23,2.37-.68,3.4c-.45,1.03-1.1,1.92-1.94,2.67-.84.76-1.83,1.34-2.97,1.74-1.14.41-2.4.61-3.77.61h-9.26ZM179.59,98.86c1.99,0,3.53-.61,4.61-1.82,1.08-1.22,1.62-2.97,1.62-5.27,0-1.63-.25-3.02-.76-4.18-.51-1.16-1.24-2.04-2.19-2.66-.95-.62-2.08-.93-3.4-.93h-2.85c-.26,0-.38.13-.38.39v11.89c0,1.72,1.12,2.58,3.35,2.58Z"/>
    <path class="st0" d="M189.04,100.15v-.88c.72-.08,1.27-.24,1.63-.49.36-.25.67-.7.93-1.35l5.93-14.88h1.45l5.35,13.09c.32.79.6,1.41.84,1.88.24.47.48.82.72,1.05s.52.4.83.49c.31.09.7.15,1.17.18v.91h-8.18v-.91c.74-.03,1.27-.11,1.59-.24.32-.13.48-.37.48-.74,0-.24-.05-.52-.15-.83-.1-.31-.24-.71-.42-1.19l-.66-1.72h-6.3c-.41.95-.71,1.72-.89,2.31-.19.59-.28,1.04-.28,1.36,0,.44.16.72.49.86.32.14.81.2,1.46.2v.88h-5.98ZM194.75,93.27h5.32l-2.56-6.82h-.09l-2.67,6.82Z"/>
    <path class="st0" d="M210.92,100.15v-.88c.66,0,1.17-.08,1.52-.24.35-.16.58-.47.71-.93.13-.46.19-1.16.19-2.1v-2.31l-4.64-8.15c-.3-.53-.57-.93-.82-1.21-.24-.28-.5-.47-.78-.58-.28-.11-.62-.16-1.03-.16v-.88h7.45v.88c-.66,0-1.14.06-1.42.18-.28.12-.42.31-.42.57,0,.15.05.34.14.55.09.22.23.49.43.83l3.33,6.14h.09l2.74-4.62c.5-.83.85-1.46,1.04-1.89.2-.43.29-.77.29-1.03,0-.27-.11-.46-.34-.57-.23-.11-.64-.16-1.25-.16v-.88h5.53v.88c-.33,0-.63.06-.89.17-.26.11-.54.31-.82.59-.28.28-.6.69-.95,1.22-.36.54-.79,1.23-1.3,2.1l-3.35,5.73v2.45c0,1,.06,1.74.18,2.22.12.48.35.8.69.96s.84.24,1.51.24v.88h-7.84Z"/>
  </g>
  <path class="st0" d="M135.53,19.46c-.13-.03-.25-.06-.38-.08-.13-.03-.25-.06-.37-.1-.25-.06-.49-.14-.72-.22-.11-.04-.23-.08-.34-.12-.11-.04-.22-.09-.32-.13-.1-.04-.2-.09-.3-.13-.1-.04-.19-.08-.27-.13-.17-.08-.33-.17-.47-.24-.14-.08-.26-.14-.35-.19-.01,0-.02-.01-.03-.02-.1-.03-.23-.15-.23-.24,0-.11.09-.19.19-.19.06,0,.22.05.34.11.08.03.17.07.27.11.14.06.3.12.47.18.09.03.18.06.27.09.09.03.19.06.29.09.03,0,.18,0,.24-.02.35-.14.91-.57,1.21-.83.49-.42.29-.69.35-.83.09-.02.34.17.81-.43.2-.25.31-.46.35-.69.01-.08-.02-.1-.06-.19.12.02.12.06.2,0,.16-.1.29-.34.34-.44.12-.24-.02-.39-.14-.57-.12-.18-.24-.31-.36-.49-.32-.48-.93-.95-1.11-1.38-.39-.96.41-1.07-.61-2.65-.26-.41-.82-.94-1.44-1.43-.07-.05-.14-.09-.2-.14-.09-.06-.18-.12-.27-.18-.09-.06-.18-.11-.26-.16-.08-.05-.17-.1-.25-.14-.16-.09-.31-.16-.45-.23-.1-.05-.19-.09-.27-.13-.13-.05-.27-.13-.31-.18-.07-.08-.07-.2.01-.27.07-.06.25-.05.34,0,.01,0,.02,0,.04,0,.11.03.23.08.38.13.03.01.07.02.1.04,0,0,.02,0,.02,0-.28-.33-.72-.94-.46-1.49.28-.59,1.01-1.55,1.02-1.96,0-.11-.09-.14-.17-.04-.94,1.21-2.25,1.45-3.42,2.68-.31,0,.07.06-.25.06-.77.02-.52-1.38-.47-2.31.02-.51.33-1.82-.85-1.17-1.73.96-3.17,2.67-4.02,4.46-.19.4-.28.87-.24,1.35.02.09.04.17.06.25.02.1.05.19.08.28.05.18.11.34.16.48.04.1.07.19.1.28.06.12.1.28.1.34,0,.11-.09.19-.2.19-.09,0-.21-.13-.24-.24,0-.01-.01-.02-.02-.03-.06-.09-.11-.22-.18-.35-.07-.14-.15-.3-.22-.48-.03-.06-.05-.12-.08-.19-1.1,1.23-4.49,7.28,1.1,11.88.34.21.68.54,1.01.7,6.04,3.06,10.43-.99,10.62-1.97,0-.06,0-.17,0-.3-.05,0-.09-.02-.14-.03Z"/>
</svg>